<?xml version="1.0" standalone="no"?>
<!DOCTYPE svg PUBLIC "-//W3C//DTD SVG 20010904//EN"
 "http://www.w3.org/TR/2001/REC-SVG-20010904/DTD/svg10.dtd">
<svg version="1.0" xmlns="http://www.w3.org/2000/svg"
 width="360.000000pt" height="360.000000pt" viewBox="0 0 360.000000 360.000000"
 preserveAspectRatio="xMidYMid meet">

<g transform="translate(0.000000,360.000000) scale(0.100000,-0.100000)"
fill="#d8363a" stroke="none">
<path d="M1635 3439 c-119 -11 -301 -57 -418 -108 -847 -361 -1146 -1393 -629
-2167 33 -49 99 -131 146 -181 l86 -91 6 -248 c4 -137 9 -302 13 -366 l6 -117
195 151 c107 82 228 175 268 206 l73 55 92 -21 c205 -47 426 -53 616 -17 493
94 908 443 1084 910 203 537 69 1153 -337 1559 -323 323 -745 476 -1201 435z
m15 -729 c297 -31 531 -162 625 -348 25 -49 44 -119 45 -159 0 -22 -3 -23
-109 -23 -359 0 -626 -164 -697 -428 l-18 -65 -85 6 c-91 6 -197 31 -271 63
l-44 20 -49 -33 c-82 -55 -192 -76 -292 -54 -29 6 -28 7 35 38 36 18 89 53
118 79 l53 46 -61 64 c-86 89 -125 175 -125 274 0 96 15 144 68 222 105 153
328 268 577 297 105 12 123 12 230 1z m795 -684 c220 -59 379 -215 379 -371 0
-78 -44 -175 -104 -229 l-39 -35 40 -40 c23 -22 61 -48 85 -58 24 -10 44 -21
44 -25 0 -14 -92 -20 -136 -9 -50 13 -119 45 -128 60 -4 5 -31 0 -64 -14 -93
-37 -168 -49 -302 -48 -206 1 -367 59 -480 173 -61 61 -86 104 -99 177 -36
188 141 369 419 428 84 18 302 13 385 -9z"/>
<path d="M1962 1704 c-41 -28 -22 -112 26 -115 50 -4 82 21 82 63 0 56 -60 86
-108 52z"/>
<path d="M2200 1700 c-52 -52 8 -139 75 -108 46 21 50 94 6 117 -30 17 -59 13
-81 -9z"/>
<path d="M2441 1694 c-26 -33 -26 -55 -3 -85 37 -45 122 -16 122 41 0 31 -39
70 -70 70 -19 0 -36 -9 -49 -26z"/>
</g>
</svg>
